<mxfile host="app.diagrams.net" modified="2023-05-01T06:47:55.481Z" agent="Mozilla/5.0 (Windows NT 10.0; Win64; x64) AppleWebKit/537.36 (KHTML, like Gecko) Chrome/112.0.0.0 Safari/537.36" version="21.2.3" etag="cq0cTt4W2Etji0HU6RcY" type="github">
  <diagram name="페이지-1" id="lQwBXoGTpbbA1YwnCAoT">
    <mxGraphModel>
      <root>
        <mxCell id="0" />
        <mxCell id="1" parent="0" />
      </root>
    </mxGraphModel>
  </diagram>
</mxfile>
